<svg width="30" height="24" viewBox="0 0 30 24" fill="none" xmlns="http://www.w3.org/2000/svg">
<path d="M23.1802 5.69837L11.734 5.69837L11.734 8.96406L23.1802 8.96406L23.1802 13.8626L29.6953 7.33121L23.1802 0.799833L23.1802 5.69837ZM0.304077 17.1283L6.81913 23.6597L6.81913 18.7611L18.2654 18.7611L18.2654 15.4954L6.81913 15.4954L6.81913 10.5969L0.304077 17.1283ZM23.1802 5.69837L11.734 5.69837L11.734 8.96406L23.1802 8.96406L23.1802 13.8626L29.6953 7.33121L23.1802 0.799833L23.1802 5.69837ZM0.304077 17.1283L6.81913 23.6597L6.81913 18.7611L18.2654 18.7611L18.2654 15.4954L6.81913 15.4954L6.81913 10.5969L0.304077 17.1283Z" fill="#6CA6D0"/>
</svg>
