<svg width="1046" height="699" viewBox="0 0 1046 699" fill="none" xmlns="http://www.w3.org/2000/svg">
<path d="M1 3C1 3 148.541 44.9806 230.444 96.0669C332.272 159.581 342.03 257.049 449.759 310.221C604.585 386.64 695.818 335.508 838 433C973.998 526.253 1053 698 1053 698" stroke="#B1DEFF" stroke-width="2" stroke-dasharray="8 8"/>
<circle cx="235" cy="98" r="10" fill="#D6333A"/>
<g filter="url(#filter0_d_0_1)">
<rect x="245" y="31" width="150" height="53" rx="24" fill="#FFC4C7"/>
<path d="M242.937 91.2555L249.687 63.4853L270.361 83.2163L242.937 91.2555Z" fill="#FFC4C7"/>
<path d="M284.34 62.24C283.567 62.24 282.88 62.16 282.28 62C281.68 61.8267 281.16 61.5933 280.72 61.3C280.28 60.9933 279.92 60.66 279.64 60.3C279.36 59.9267 279.153 59.5333 279.02 59.12L280.64 58.56C280.84 59.1467 281.24 59.66 281.84 60.1C282.453 60.5267 283.2 60.74 284.08 60.74C285.16 60.74 286.007 60.5267 286.62 60.1C287.233 59.6733 287.54 59.1067 287.54 58.4C287.54 57.7467 287.267 57.22 286.72 56.82C286.173 56.4067 285.453 56.0867 284.56 55.86L283.02 55.46C282.393 55.3 281.813 55.0667 281.28 54.76C280.76 54.44 280.34 54.04 280.02 53.56C279.713 53.0667 279.56 52.48 279.56 51.8C279.56 50.5333 279.967 49.5467 280.78 48.84C281.607 48.12 282.793 47.76 284.34 47.76C285.26 47.76 286.053 47.9133 286.72 48.22C287.387 48.5133 287.927 48.8933 288.34 49.36C288.767 49.8133 289.067 50.3067 289.24 50.84L287.64 51.4C287.387 50.7333 286.96 50.2133 286.36 49.84C285.76 49.4533 285.033 49.26 284.18 49.26C283.287 49.26 282.573 49.48 282.04 49.92C281.52 50.3467 281.26 50.9333 281.26 51.68C281.26 52.32 281.467 52.8133 281.88 53.16C282.293 53.4933 282.833 53.74 283.5 53.9L285.04 54.28C286.4 54.6 287.44 55.1333 288.16 55.88C288.893 56.6133 289.26 57.4067 289.26 58.26C289.26 58.9933 289.073 59.6667 288.7 60.28C288.327 60.88 287.773 61.36 287.04 61.72C286.32 62.0667 285.42 62.24 284.34 62.24ZM291.785 62L291.825 52H293.425L293.385 62H291.785ZM292.605 49.68C292.338 49.68 292.105 49.58 291.905 49.38C291.705 49.18 291.605 48.9467 291.605 48.68C291.605 48.4 291.705 48.1667 291.905 47.98C292.105 47.78 292.338 47.68 292.605 47.68C292.885 47.68 293.118 47.78 293.305 47.98C293.505 48.1667 293.605 48.4 293.605 48.68C293.605 48.9467 293.505 49.18 293.305 49.38C293.118 49.58 292.885 49.68 292.605 49.68ZM300.334 66.24C299.694 66.24 299.107 66.1733 298.574 66.04C298.054 65.92 297.607 65.78 297.234 65.62C296.874 65.4733 296.614 65.3467 296.454 65.24L297.054 63.94C297.227 64.0333 297.474 64.1467 297.794 64.28C298.114 64.4267 298.487 64.5467 298.914 64.64C299.354 64.7467 299.82 64.8 300.314 64.8C300.954 64.8 301.527 64.6667 302.034 64.4C302.554 64.1467 302.954 63.74 303.234 63.18C303.527 62.6333 303.674 61.9267 303.674 61.06V52H305.274V61.04C305.274 62.1867 305.06 63.1467 304.634 63.92C304.207 64.6933 303.62 65.2733 302.874 65.66C302.127 66.0467 301.28 66.24 300.334 66.24ZM300.274 61.92C299.38 61.92 298.594 61.7067 297.914 61.28C297.234 60.8533 296.7 60.26 296.314 59.5C295.94 58.7267 295.754 57.8467 295.754 56.86C295.754 55.8467 295.94 54.96 296.314 54.2C296.7 53.4267 297.234 52.8267 297.914 52.4C298.594 51.9733 299.38 51.76 300.274 51.76C301.114 51.76 301.847 51.9733 302.474 52.4C303.1 52.8267 303.587 53.4267 303.934 54.2C304.294 54.96 304.474 55.8467 304.474 56.86C304.474 57.86 304.294 58.74 303.934 59.5C303.587 60.26 303.1 60.8533 302.474 61.28C301.847 61.7067 301.114 61.92 300.274 61.92ZM300.654 60.54C301.24 60.54 301.76 60.38 302.214 60.06C302.667 59.74 303.02 59.3067 303.274 58.76C303.527 58.2 303.654 57.5533 303.654 56.82C303.654 56.1133 303.52 55.4867 303.254 54.94C303 54.38 302.647 53.9467 302.194 53.64C301.754 53.32 301.234 53.16 300.634 53.16C300.007 53.16 299.447 53.32 298.954 53.64C298.474 53.9467 298.094 54.38 297.814 54.94C297.547 55.4867 297.414 56.1133 297.414 56.82C297.414 57.5533 297.554 58.2 297.834 58.76C298.114 59.3067 298.494 59.74 298.974 60.06C299.467 60.38 300.027 60.54 300.654 60.54ZM308.072 62V52H309.572L309.672 53.84V62H308.072ZM315.092 62V56.88L316.692 56.28V62H315.092ZM315.092 56.88C315.092 55.8933 314.979 55.14 314.752 54.62C314.525 54.1 314.212 53.7467 313.812 53.56C313.412 53.36 312.959 53.26 312.452 53.26C311.572 53.26 310.885 53.5733 310.392 54.2C309.912 54.8133 309.672 55.6867 309.672 56.82H308.892C308.892 55.7667 309.045 54.86 309.352 54.1C309.659 53.34 310.099 52.76 310.672 52.36C311.259 51.96 311.965 51.76 312.792 51.76C314.005 51.76 314.959 52.1333 315.652 52.88C316.359 53.6267 316.705 54.76 316.692 56.28L315.092 56.88ZM331.026 62L330.926 60.16V52H332.526V62H331.026ZM323.906 57.72V52H325.506V57.12L323.906 57.72ZM325.506 57.12C325.506 58.1067 325.619 58.86 325.846 59.38C326.072 59.9 326.386 60.26 326.786 60.46C327.199 60.6467 327.659 60.74 328.166 60.74C329.032 60.74 329.706 60.4267 330.186 59.8C330.679 59.1733 330.926 58.3 330.926 57.18H331.706C331.706 58.2333 331.552 59.14 331.246 59.9C330.939 60.66 330.492 61.24 329.906 61.64C329.332 62.04 328.632 62.24 327.806 62.24C326.592 62.24 325.632 61.8667 324.926 61.12C324.232 60.3733 323.892 59.24 323.906 57.72L325.506 57.12ZM335.418 66V52H336.918L337.018 53.84V66H335.418ZM340.398 62.24C339.558 62.24 338.818 62.02 338.178 61.58C337.551 61.14 337.065 60.5267 336.718 59.74C336.371 58.94 336.198 58.0267 336.198 57C336.198 55.96 336.371 55.0467 336.718 54.26C337.065 53.4733 337.551 52.86 338.178 52.42C338.818 51.98 339.558 51.76 340.398 51.76C341.291 51.76 342.078 51.98 342.758 52.42C343.438 52.86 343.965 53.4733 344.338 54.26C344.725 55.0467 344.918 55.96 344.918 57C344.918 58.0267 344.725 58.94 344.338 59.74C343.965 60.5267 343.438 61.14 342.758 61.58C342.078 62.02 341.291 62.24 340.398 62.24ZM340.038 60.78C340.665 60.78 341.218 60.62 341.698 60.3C342.191 59.98 342.578 59.5333 342.858 58.96C343.151 58.3867 343.298 57.7333 343.298 57C343.298 56.2667 343.158 55.6133 342.878 55.04C342.611 54.4667 342.231 54.02 341.738 53.7C341.245 53.38 340.685 53.22 340.058 53.22C339.471 53.22 338.945 53.38 338.478 53.7C338.025 54.02 337.665 54.4667 337.398 55.04C337.145 55.6133 337.018 56.2667 337.018 57C337.018 57.7333 337.145 58.3867 337.398 58.96C337.665 59.5333 338.025 59.98 338.478 60.3C338.931 60.62 339.451 60.78 340.038 60.78Z" fill="#0D2F48"/>
</g>
<circle cx="406" cy="277" r="10" fill="#1C496A"/>
<g filter="url(#filter1_d_0_1)">
<rect x="420" y="205" width="339" height="53" rx="24" fill="#DEF1FF"/>
<path d="M417.937 265.256L424.687 237.485L445.361 257.216L417.937 265.256Z" fill="#DEF1FF"/>
<path d="M454.674 234V221.4H456.204V234H454.674ZM456.024 234V232.614H462.162V234H456.024ZM456.024 228.222V226.854H461.604V228.222H456.024ZM456.024 222.786V221.4H462.126V222.786H456.024ZM464.912 234V225H466.262L466.352 226.656V234H464.912ZM471.23 234V229.392L472.67 228.852V234H471.23ZM471.23 229.392C471.23 228.504 471.128 227.826 470.924 227.358C470.72 226.89 470.438 226.572 470.078 226.404C469.718 226.224 469.31 226.134 468.854 226.134C468.062 226.134 467.444 226.416 467 226.98C466.568 227.532 466.352 228.318 466.352 229.338H465.65C465.65 228.39 465.788 227.574 466.064 226.89C466.34 226.206 466.736 225.684 467.252 225.324C467.78 224.964 468.416 224.784 469.16 224.784C470.252 224.784 471.11 225.12 471.734 225.792C472.37 226.464 472.682 227.484 472.67 228.852L471.23 229.392ZM478.549 237.816C477.973 237.816 477.445 237.756 476.965 237.636C476.497 237.528 476.095 237.402 475.759 237.258C475.435 237.126 475.201 237.012 475.057 236.916L475.597 235.746C475.753 235.83 475.975 235.932 476.263 236.052C476.551 236.184 476.887 236.292 477.271 236.376C477.667 236.472 478.087 236.52 478.531 236.52C479.107 236.52 479.623 236.4 480.079 236.16C480.547 235.932 480.907 235.566 481.159 235.062C481.423 234.57 481.555 233.934 481.555 233.154V225H482.995V233.136C482.995 234.168 482.803 235.032 482.419 235.728C482.035 236.424 481.507 236.946 480.835 237.294C480.163 237.642 479.401 237.816 478.549 237.816ZM478.495 233.928C477.691 233.928 476.983 233.736 476.371 233.352C475.759 232.968 475.279 232.434 474.931 231.75C474.595 231.054 474.427 230.262 474.427 229.374C474.427 228.462 474.595 227.664 474.931 226.98C475.279 226.284 475.759 225.744 476.371 225.36C476.983 224.976 477.691 224.784 478.495 224.784C479.251 224.784 479.911 224.976 480.475 225.36C481.039 225.744 481.477 226.284 481.789 226.98C482.113 227.664 482.275 228.462 482.275 229.374C482.275 230.274 482.113 231.066 481.789 231.75C481.477 232.434 481.039 232.968 480.475 233.352C479.911 233.736 479.251 233.928 478.495 233.928ZM478.837 232.686C479.365 232.686 479.833 232.542 480.241 232.254C480.649 231.966 480.967 231.576 481.195 231.084C481.423 230.58 481.537 229.998 481.537 229.338C481.537 228.702 481.417 228.138 481.177 227.646C480.949 227.142 480.631 226.752 480.223 226.476C479.827 226.188 479.359 226.044 478.819 226.044C478.255 226.044 477.751 226.188 477.307 226.476C476.875 226.752 476.533 227.142 476.281 227.646C476.041 228.138 475.921 228.702 475.921 229.338C475.921 229.998 476.047 230.58 476.299 231.084C476.551 231.576 476.893 231.966 477.325 232.254C477.769 232.542 478.273 232.686 478.837 232.686ZM491.058 234L490.968 232.524V229.248C490.968 228.54 490.884 227.958 490.716 227.502C490.56 227.034 490.314 226.686 489.978 226.458C489.654 226.218 489.222 226.098 488.682 226.098C488.166 226.098 487.716 226.2 487.332 226.404C486.96 226.608 486.654 226.926 486.414 227.358L485.118 226.836C485.358 226.416 485.646 226.05 485.982 225.738C486.318 225.426 486.708 225.192 487.152 225.036C487.608 224.868 488.124 224.784 488.7 224.784C489.528 224.784 490.218 224.946 490.77 225.27C491.322 225.594 491.736 226.08 492.012 226.728C492.288 227.364 492.42 228.162 492.408 229.122L492.39 234H491.058ZM488.358 234.216C487.302 234.216 486.474 233.976 485.874 233.496C485.286 233.004 484.992 232.326 484.992 231.462C484.992 230.55 485.292 229.854 485.892 229.374C486.504 228.882 487.356 228.636 488.448 228.636H491.022V229.842H488.772C487.932 229.842 487.332 229.98 486.972 230.256C486.624 230.532 486.45 230.928 486.45 231.444C486.45 231.912 486.624 232.284 486.972 232.56C487.32 232.824 487.806 232.956 488.43 232.956C488.946 232.956 489.396 232.836 489.78 232.596C490.164 232.356 490.458 232.032 490.662 231.624C490.866 231.204 490.968 230.73 490.968 230.202H491.85C491.85 231.426 491.55 232.404 490.95 233.136C490.35 233.856 489.486 234.216 488.358 234.216ZM498.29 237.816C497.714 237.816 497.186 237.756 496.706 237.636C496.238 237.528 495.836 237.402 495.5 237.258C495.176 237.126 494.942 237.012 494.798 236.916L495.338 235.746C495.494 235.83 495.716 235.932 496.004 236.052C496.292 236.184 496.628 236.292 497.012 236.376C497.408 236.472 497.828 236.52 498.272 236.52C498.848 236.52 499.364 236.4 499.82 236.16C500.288 235.932 500.648 235.566 500.9 235.062C501.164 234.57 501.296 233.934 501.296 233.154V225H502.736V233.136C502.736 234.168 502.544 235.032 502.16 235.728C501.776 236.424 501.248 236.946 500.576 237.294C499.904 237.642 499.142 237.816 498.29 237.816ZM498.236 233.928C497.432 233.928 496.724 233.736 496.112 233.352C495.5 232.968 495.02 232.434 494.672 231.75C494.336 231.054 494.168 230.262 494.168 229.374C494.168 228.462 494.336 227.664 494.672 226.98C495.02 226.284 495.5 225.744 496.112 225.36C496.724 224.976 497.432 224.784 498.236 224.784C498.992 224.784 499.652 224.976 500.216 225.36C500.78 225.744 501.218 226.284 501.53 226.98C501.854 227.664 502.016 228.462 502.016 229.374C502.016 230.274 501.854 231.066 501.53 231.75C501.218 232.434 500.78 232.968 500.216 233.352C499.652 233.736 498.992 233.928 498.236 233.928ZM498.578 232.686C499.106 232.686 499.574 232.542 499.982 232.254C500.39 231.966 500.708 231.576 500.936 231.084C501.164 230.58 501.278 229.998 501.278 229.338C501.278 228.702 501.158 228.138 500.918 227.646C500.69 227.142 500.372 226.752 499.964 226.476C499.568 226.188 499.1 226.044 498.56 226.044C497.996 226.044 497.492 226.188 497.048 226.476C496.616 226.752 496.274 227.142 496.022 227.646C495.782 228.138 495.662 228.702 495.662 229.338C495.662 229.998 495.788 230.58 496.04 231.084C496.292 231.576 496.634 231.966 497.066 232.254C497.51 232.542 498.014 232.686 498.578 232.686ZM509.196 234.216C508.32 234.216 507.546 234.018 506.874 233.622C506.202 233.214 505.674 232.656 505.29 231.948C504.918 231.24 504.732 230.424 504.732 229.5C504.732 228.576 504.918 227.76 505.29 227.052C505.674 226.344 506.196 225.792 506.856 225.396C507.528 224.988 508.296 224.784 509.16 224.784C509.988 224.784 510.708 224.994 511.32 225.414C511.944 225.822 512.424 226.398 512.76 227.142C513.096 227.886 513.264 228.762 513.264 229.77H511.824C511.824 229.002 511.722 228.348 511.518 227.808C511.314 227.256 511.008 226.83 510.6 226.53C510.204 226.23 509.718 226.08 509.142 226.08C508.554 226.08 508.032 226.224 507.576 226.512C507.132 226.788 506.79 227.184 506.55 227.7C506.31 228.216 506.19 228.822 506.19 229.518C506.19 230.202 506.322 230.796 506.586 231.3C506.85 231.792 507.216 232.182 507.684 232.47C508.152 232.746 508.68 232.884 509.268 232.884C509.892 232.884 510.42 232.734 510.852 232.434C511.284 232.134 511.626 231.744 511.878 231.264L513.138 231.894C512.91 232.362 512.604 232.77 512.22 233.118C511.848 233.466 511.404 233.736 510.888 233.928C510.384 234.12 509.82 234.216 509.196 234.216ZM505.686 229.77L505.704 228.528H512.382V229.77H505.686ZM525.306 234.216C524.094 234.216 523.02 233.94 522.084 233.388C521.148 232.836 520.416 232.068 519.888 231.084C519.36 230.1 519.096 228.972 519.096 227.7C519.096 226.416 519.354 225.288 519.87 224.316C520.398 223.332 521.124 222.564 522.048 222.012C522.972 221.46 524.04 221.184 525.252 221.184C526.464 221.184 527.532 221.466 528.456 222.03C529.392 222.582 530.118 223.35 530.634 224.334C531.15 225.306 531.408 226.428 531.408 227.7C531.408 228.972 531.15 230.1 530.634 231.084C530.118 232.068 529.398 232.836 528.474 233.388C527.562 233.94 526.506 234.216 525.306 234.216ZM525.306 232.83C526.206 232.83 526.998 232.614 527.682 232.182C528.366 231.738 528.9 231.132 529.284 230.364C529.68 229.596 529.878 228.708 529.878 227.7C529.878 226.704 529.68 225.822 529.284 225.054C528.888 224.274 528.342 223.668 527.646 223.236C526.962 222.792 526.164 222.57 525.252 222.57C524.352 222.57 523.554 222.792 522.858 223.236C522.162 223.668 521.616 224.274 521.22 225.054C520.824 225.822 520.626 226.704 520.626 227.7C520.626 228.708 520.824 229.596 521.22 230.364C521.616 231.132 522.168 231.738 522.876 232.182C523.584 232.614 524.394 232.83 525.306 232.83ZM534.15 233.658L533.052 232.848L539.172 225.288L540.234 226.116L534.15 233.658ZM533.052 234V232.848L534.006 232.74H540.27V234H533.052ZM533.052 226.26V225H540.234V226.116L539.28 226.26H533.052ZM546.322 234.216C545.446 234.216 544.666 234.018 543.982 233.622C543.31 233.214 542.782 232.656 542.398 231.948C542.014 231.24 541.822 230.424 541.822 229.5C541.822 228.576 542.008 227.76 542.38 227.052C542.764 226.344 543.292 225.792 543.964 225.396C544.648 224.988 545.422 224.784 546.286 224.784C547.174 224.784 547.954 224.988 548.626 225.396C549.31 225.792 549.838 226.344 550.21 227.052C550.594 227.76 550.786 228.576 550.786 229.5C550.786 230.424 550.594 231.24 550.21 231.948C549.838 232.656 549.316 233.214 548.644 233.622C547.972 234.018 547.198 234.216 546.322 234.216ZM546.322 232.884C546.922 232.884 547.444 232.74 547.888 232.452C548.332 232.164 548.68 231.768 548.932 231.264C549.196 230.76 549.328 230.172 549.328 229.5C549.328 228.828 549.196 228.24 548.932 227.736C548.68 227.232 548.326 226.836 547.87 226.548C547.414 226.26 546.886 226.116 546.286 226.116C545.698 226.116 545.176 226.26 544.72 226.548C544.276 226.836 543.922 227.232 543.658 227.736C543.406 228.24 543.28 228.828 543.28 229.5C543.28 230.16 543.406 230.748 543.658 231.264C543.922 231.768 544.282 232.164 544.738 232.452C545.206 232.74 545.734 232.884 546.322 232.884ZM552.785 234V225H554.135L554.225 226.656V234H552.785ZM559.103 234V229.392L560.543 228.852V234H559.103ZM559.103 229.392C559.103 228.504 559.001 227.826 558.797 227.358C558.593 226.89 558.311 226.572 557.951 226.404C557.591 226.224 557.183 226.134 556.727 226.134C555.935 226.134 555.317 226.416 554.873 226.98C554.441 227.532 554.225 228.318 554.225 229.338H553.523C553.523 228.39 553.661 227.574 553.937 226.89C554.213 226.206 554.609 225.684 555.125 225.324C555.653 224.964 556.289 224.784 557.033 224.784C558.125 224.784 558.983 225.12 559.607 225.792C560.243 226.464 560.555 227.484 560.543 228.852L559.103 229.392ZM566.765 234.216C565.889 234.216 565.115 234.018 564.443 233.622C563.771 233.214 563.243 232.656 562.859 231.948C562.487 231.24 562.301 230.424 562.301 229.5C562.301 228.576 562.487 227.76 562.859 227.052C563.243 226.344 563.765 225.792 564.425 225.396C565.097 224.988 565.865 224.784 566.729 224.784C567.557 224.784 568.277 224.994 568.889 225.414C569.513 225.822 569.993 226.398 570.329 227.142C570.665 227.886 570.833 228.762 570.833 229.77H569.393C569.393 229.002 569.291 228.348 569.087 227.808C568.883 227.256 568.577 226.83 568.169 226.53C567.773 226.23 567.287 226.08 566.711 226.08C566.123 226.08 565.601 226.224 565.145 226.512C564.701 226.788 564.359 227.184 564.119 227.7C563.879 228.216 563.759 228.822 563.759 229.518C563.759 230.202 563.891 230.796 564.155 231.3C564.419 231.792 564.785 232.182 565.253 232.47C565.721 232.746 566.249 232.884 566.837 232.884C567.461 232.884 567.989 232.734 568.421 232.434C568.853 232.134 569.195 231.744 569.447 231.264L570.707 231.894C570.479 232.362 570.173 232.77 569.789 233.118C569.417 233.466 568.973 233.736 568.457 233.928C567.953 234.12 567.389 234.216 566.765 234.216ZM563.255 229.77L563.273 228.528H569.951V229.77H563.255ZM582.82 234.216C581.62 234.216 580.558 233.94 579.634 233.388C578.71 232.824 577.984 232.056 577.456 231.084C576.928 230.1 576.664 228.972 576.664 227.7C576.664 226.428 576.922 225.306 577.438 224.334C577.966 223.35 578.686 222.582 579.598 222.03C580.522 221.466 581.578 221.184 582.766 221.184C583.522 221.184 584.248 221.322 584.944 221.598C585.64 221.862 586.264 222.24 586.816 222.732C587.368 223.212 587.794 223.77 588.094 224.406L586.78 225.072C586.54 224.568 586.21 224.13 585.79 223.758C585.37 223.386 584.902 223.098 584.386 222.894C583.87 222.678 583.33 222.57 582.766 222.57C581.89 222.57 581.104 222.792 580.408 223.236C579.712 223.668 579.166 224.268 578.77 225.036C578.386 225.804 578.194 226.692 578.194 227.7C578.194 228.708 578.392 229.602 578.788 230.382C579.184 231.162 579.73 231.774 580.426 232.218C581.134 232.65 581.932 232.866 582.82 232.866C583.396 232.866 583.942 232.752 584.458 232.524C584.974 232.284 585.436 231.96 585.844 231.552C586.264 231.144 586.594 230.676 586.834 230.148L588.166 230.814C587.854 231.474 587.422 232.062 586.87 232.578C586.33 233.094 585.706 233.496 584.998 233.784C584.302 234.072 583.576 234.216 582.82 234.216ZM596.243 234L596.153 232.344V225H597.593V234H596.243ZM589.835 230.148V225H591.275V229.608L589.835 230.148ZM591.275 229.608C591.275 230.496 591.377 231.174 591.581 231.642C591.785 232.11 592.067 232.434 592.427 232.614C592.799 232.782 593.213 232.866 593.669 232.866C594.449 232.866 595.055 232.584 595.487 232.02C595.931 231.456 596.153 230.67 596.153 229.662H596.855C596.855 230.61 596.717 231.426 596.441 232.11C596.165 232.794 595.763 233.316 595.235 233.676C594.719 234.036 594.089 234.216 593.345 234.216C592.253 234.216 591.389 233.88 590.753 233.208C590.129 232.536 589.823 231.516 589.835 230.148L591.275 229.608ZM603.256 234.216C602.596 234.216 602.02 234.12 601.528 233.928C601.036 233.724 600.622 233.46 600.286 233.136C599.962 232.812 599.728 232.458 599.584 232.074L600.844 231.552C601.048 231.96 601.354 232.29 601.762 232.542C602.17 232.794 602.62 232.92 603.112 232.92C603.676 232.92 604.15 232.812 604.534 232.596C604.918 232.368 605.11 232.05 605.11 231.642C605.11 231.27 604.966 230.97 604.678 230.742C604.402 230.514 603.988 230.328 603.436 230.184L602.572 229.95C601.756 229.734 601.12 229.41 600.664 228.978C600.208 228.534 599.98 228.036 599.98 227.484C599.98 226.632 600.256 225.972 600.808 225.504C601.372 225.024 602.206 224.784 603.31 224.784C603.838 224.784 604.318 224.862 604.75 225.018C605.182 225.174 605.554 225.396 605.866 225.684C606.178 225.96 606.406 226.29 606.55 226.674L605.29 227.232C605.134 226.824 604.876 226.53 604.516 226.35C604.156 226.17 603.718 226.08 603.202 226.08C602.65 226.08 602.218 226.2 601.906 226.44C601.594 226.668 601.438 226.992 601.438 227.412C601.438 227.652 601.564 227.88 601.816 228.096C602.08 228.3 602.464 228.468 602.968 228.6L603.868 228.834C604.456 228.978 604.948 229.194 605.344 229.482C605.74 229.758 606.04 230.076 606.244 230.436C606.448 230.796 606.55 231.18 606.55 231.588C606.55 232.128 606.406 232.596 606.118 232.992C605.83 233.388 605.44 233.694 604.948 233.91C604.456 234.114 603.892 234.216 603.256 234.216ZM611.874 234.216C610.998 234.216 610.32 233.988 609.84 233.532C609.36 233.076 609.12 232.434 609.12 231.606V222.192H610.56V231.462C610.56 231.918 610.68 232.272 610.92 232.524C611.172 232.764 611.52 232.884 611.964 232.884C612.108 232.884 612.246 232.866 612.378 232.83C612.522 232.782 612.708 232.674 612.936 232.506L613.494 233.676C613.182 233.88 612.9 234.018 612.648 234.09C612.396 234.174 612.138 234.216 611.874 234.216ZM607.554 226.278V225H613.26V226.278H607.554ZM619.218 234.216C618.342 234.216 617.562 234.018 616.878 233.622C616.206 233.214 615.678 232.656 615.294 231.948C614.91 231.24 614.718 230.424 614.718 229.5C614.718 228.576 614.904 227.76 615.276 227.052C615.66 226.344 616.188 225.792 616.86 225.396C617.544 224.988 618.318 224.784 619.182 224.784C620.07 224.784 620.85 224.988 621.522 225.396C622.206 225.792 622.734 226.344 623.106 227.052C623.49 227.76 623.682 228.576 623.682 229.5C623.682 230.424 623.49 231.24 623.106 231.948C622.734 232.656 622.212 233.214 621.54 233.622C620.868 234.018 620.094 234.216 619.218 234.216ZM619.218 232.884C619.818 232.884 620.34 232.74 620.784 232.452C621.228 232.164 621.576 231.768 621.828 231.264C622.092 230.76 622.224 230.172 622.224 229.5C622.224 228.828 622.092 228.24 621.828 227.736C621.576 227.232 621.222 226.836 620.766 226.548C620.31 226.26 619.782 226.116 619.182 226.116C618.594 226.116 618.072 226.26 617.616 226.548C617.172 226.836 616.818 227.232 616.554 227.736C616.302 228.24 616.176 228.828 616.176 229.5C616.176 230.16 616.302 230.748 616.554 231.264C616.818 231.768 617.178 232.164 617.634 232.452C618.102 232.74 618.63 232.884 619.218 232.884ZM625.682 234V225H627.032L627.122 226.656V234H625.682ZM632 234V229.392L633.44 228.852V234H632ZM638.336 234V229.392L639.776 228.852V234H638.336ZM632 229.392C632 228.504 631.898 227.826 631.694 227.358C631.49 226.89 631.208 226.572 630.848 226.404C630.488 226.224 630.08 226.134 629.624 226.134C628.832 226.134 628.214 226.416 627.77 226.98C627.338 227.532 627.122 228.318 627.122 229.338H626.42C626.42 228.39 626.558 227.574 626.834 226.89C627.11 226.206 627.506 225.684 628.022 225.324C628.55 224.964 629.186 224.784 629.93 224.784C631.022 224.784 631.88 225.12 632.504 225.792C633.14 226.464 633.452 227.484 633.44 228.852L632 229.392ZM638.336 229.392C638.336 228.504 638.228 227.826 638.012 227.358C637.808 226.89 637.526 226.572 637.166 226.404C636.806 226.224 636.398 226.134 635.942 226.134C635.15 226.134 634.532 226.416 634.088 226.98C633.656 227.532 633.44 228.318 633.44 229.338H632.738C632.738 228.39 632.876 227.574 633.152 226.89C633.428 226.206 633.83 225.684 634.358 225.324C634.886 224.964 635.522 224.784 636.266 224.784C637.346 224.784 638.198 225.12 638.822 225.792C639.458 226.464 639.776 227.484 639.776 228.852L638.336 229.392ZM645.989 234.216C645.113 234.216 644.339 234.018 643.667 233.622C642.995 233.214 642.467 232.656 642.083 231.948C641.711 231.24 641.525 230.424 641.525 229.5C641.525 228.576 641.711 227.76 642.083 227.052C642.467 226.344 642.989 225.792 643.649 225.396C644.321 224.988 645.089 224.784 645.953 224.784C646.781 224.784 647.501 224.994 648.113 225.414C648.737 225.822 649.217 226.398 649.553 227.142C649.889 227.886 650.057 228.762 650.057 229.77H648.617C648.617 229.002 648.515 228.348 648.311 227.808C648.107 227.256 647.801 226.83 647.393 226.53C646.997 226.23 646.511 226.08 645.935 226.08C645.347 226.08 644.825 226.224 644.369 226.512C643.925 226.788 643.583 227.184 643.343 227.7C643.103 228.216 642.983 228.822 642.983 229.518C642.983 230.202 643.115 230.796 643.379 231.3C643.643 231.792 644.009 232.182 644.477 232.47C644.945 232.746 645.473 232.884 646.061 232.884C646.685 232.884 647.213 232.734 647.645 232.434C648.077 232.134 648.419 231.744 648.671 231.264L649.931 231.894C649.703 232.362 649.397 232.77 649.013 233.118C648.641 233.466 648.197 233.736 647.681 233.928C647.177 234.12 646.613 234.216 645.989 234.216ZM642.479 229.77L642.497 228.528H649.175V229.77H642.479ZM652.665 229.122C652.665 228.15 652.851 227.364 653.223 226.764C653.595 226.152 654.069 225.702 654.645 225.414C655.233 225.114 655.851 224.964 656.499 224.964V226.314C655.971 226.314 655.461 226.404 654.969 226.584C654.489 226.752 654.093 227.034 653.781 227.43C653.469 227.826 653.313 228.366 653.313 229.05L652.665 229.122ZM651.873 234V225H653.313V234H651.873ZM664.257 229.05V227.646H667.137C667.593 227.646 668.001 227.544 668.361 227.34C668.721 227.124 669.009 226.836 669.225 226.476C669.453 226.104 669.567 225.684 669.567 225.216C669.567 224.496 669.315 223.914 668.811 223.47C668.319 223.014 667.677 222.786 666.885 222.786H664.257V221.4L666.921 221.382C667.737 221.37 668.457 221.532 669.081 221.868C669.717 222.192 670.209 222.648 670.557 223.236C670.917 223.812 671.097 224.472 671.097 225.216C671.097 225.96 670.905 226.62 670.521 227.196C670.137 227.772 669.615 228.228 668.955 228.564C668.295 228.888 667.551 229.05 666.723 229.05H664.257ZM662.817 234V221.4H664.347V234H662.817ZM669.927 234L666.903 228.834L668.109 228.042L671.601 234H669.927ZM677.612 234.216C676.736 234.216 675.962 234.018 675.29 233.622C674.618 233.214 674.09 232.656 673.706 231.948C673.334 231.24 673.148 230.424 673.148 229.5C673.148 228.576 673.334 227.76 673.706 227.052C674.09 226.344 674.612 225.792 675.272 225.396C675.944 224.988 676.712 224.784 677.576 224.784C678.404 224.784 679.124 224.994 679.736 225.414C680.36 225.822 680.84 226.398 681.176 227.142C681.512 227.886 681.68 228.762 681.68 229.77H680.24C680.24 229.002 680.138 228.348 679.934 227.808C679.73 227.256 679.424 226.83 679.016 226.53C678.62 226.23 678.134 226.08 677.558 226.08C676.97 226.08 676.448 226.224 675.992 226.512C675.548 226.788 675.206 227.184 674.966 227.7C674.726 228.216 674.606 228.822 674.606 229.518C674.606 230.202 674.738 230.796 675.002 231.3C675.266 231.792 675.632 232.182 676.1 232.47C676.568 232.746 677.096 232.884 677.684 232.884C678.308 232.884 678.836 232.734 679.268 232.434C679.7 232.134 680.042 231.744 680.294 231.264L681.554 231.894C681.326 232.362 681.02 232.77 680.636 233.118C680.264 233.466 679.82 233.736 679.304 233.928C678.8 234.12 678.236 234.216 677.612 234.216ZM674.102 229.77L674.12 228.528H680.798V229.77H674.102ZM683.586 237.6V225H684.936L685.026 226.656V237.6H683.586ZM688.068 234.216C687.312 234.216 686.646 234.018 686.07 233.622C685.506 233.226 685.068 232.674 684.756 231.966C684.444 231.246 684.288 230.424 684.288 229.5C684.288 228.564 684.444 227.742 684.756 227.034C685.068 226.326 685.506 225.774 686.07 225.378C686.646 224.982 687.312 224.784 688.068 224.784C688.872 224.784 689.58 224.982 690.192 225.378C690.804 225.774 691.278 226.326 691.614 227.034C691.962 227.742 692.136 228.564 692.136 229.5C692.136 230.424 691.962 231.246 691.614 231.966C691.278 232.674 690.804 233.226 690.192 233.622C689.58 234.018 688.872 234.216 688.068 234.216ZM687.744 232.902C688.308 232.902 688.806 232.758 689.238 232.47C689.682 232.182 690.03 231.78 690.282 231.264C690.546 230.748 690.678 230.16 690.678 229.5C690.678 228.84 690.552 228.252 690.3 227.736C690.06 227.22 689.718 226.818 689.274 226.53C688.83 226.242 688.326 226.098 687.762 226.098C687.234 226.098 686.76 226.242 686.34 226.53C685.932 226.818 685.608 227.22 685.368 227.736C685.14 228.252 685.026 228.84 685.026 229.5C685.026 230.16 685.14 230.748 685.368 231.264C685.608 231.78 685.932 232.182 686.34 232.47C686.748 232.758 687.216 232.902 687.744 232.902Z" fill="#0D2F48"/>
</g>
<g filter="url(#filter2_d_0_1)">
<rect x="715" y="306" width="261" height="53" rx="24" fill="#CAFFCE"/>
<path d="M712.937 366.256L719.687 338.485L740.361 358.216L712.937 366.256Z" fill="#CAFFCE"/>
<path d="M734.76 342.24C733.427 342.24 732.247 341.933 731.22 341.32C730.193 340.693 729.387 339.84 728.8 338.76C728.213 337.667 727.92 336.413 727.92 335C727.92 333.587 728.207 332.34 728.78 331.26C729.367 330.167 730.167 329.313 731.18 328.7C732.207 328.073 733.38 327.76 734.7 327.76C735.54 327.76 736.347 327.913 737.12 328.22C737.893 328.513 738.587 328.933 739.2 329.48C739.813 330.013 740.287 330.633 740.62 331.34L739.16 332.08C738.893 331.52 738.527 331.033 738.06 330.62C737.593 330.207 737.073 329.887 736.5 329.66C735.927 329.42 735.327 329.3 734.7 329.3C733.727 329.3 732.853 329.547 732.08 330.04C731.307 330.52 730.7 331.187 730.26 332.04C729.833 332.893 729.62 333.88 729.62 335C729.62 336.12 729.84 337.113 730.28 337.98C730.72 338.847 731.327 339.527 732.1 340.02C732.887 340.5 733.773 340.74 734.76 340.74C735.4 340.74 736.007 340.613 736.58 340.36C737.153 340.093 737.667 339.733 738.12 339.28C738.587 338.827 738.953 338.307 739.22 337.72L740.7 338.46C740.353 339.193 739.873 339.847 739.26 340.42C738.66 340.993 737.967 341.44 737.18 341.76C736.407 342.08 735.6 342.24 734.76 342.24ZM747.234 342.24C746.261 342.24 745.394 342.02 744.634 341.58C743.887 341.127 743.301 340.507 742.874 339.72C742.447 338.933 742.234 338.027 742.234 337C742.234 335.973 742.441 335.067 742.854 334.28C743.281 333.493 743.867 332.88 744.614 332.44C745.374 331.987 746.234 331.76 747.194 331.76C748.181 331.76 749.047 331.987 749.794 332.44C750.554 332.88 751.141 333.493 751.554 334.28C751.981 335.067 752.194 335.973 752.194 337C752.194 338.027 751.981 338.933 751.554 339.72C751.141 340.507 750.561 341.127 749.814 341.58C749.067 342.02 748.207 342.24 747.234 342.24ZM747.234 340.76C747.901 340.76 748.481 340.6 748.974 340.28C749.467 339.96 749.854 339.52 750.134 338.96C750.427 338.4 750.574 337.747 750.574 337C750.574 336.253 750.427 335.6 750.134 335.04C749.854 334.48 749.461 334.04 748.954 333.72C748.447 333.4 747.861 333.24 747.194 333.24C746.541 333.24 745.961 333.4 745.454 333.72C744.961 334.04 744.567 334.48 744.274 335.04C743.994 335.6 743.854 336.253 743.854 337C743.854 337.733 743.994 338.387 744.274 338.96C744.567 339.52 744.967 339.96 745.474 340.28C745.994 340.6 746.581 340.76 747.234 340.76ZM754.416 342V332H755.916L756.016 333.84V342H754.416ZM761.436 342V336.88L763.036 336.28V342H761.436ZM761.436 336.88C761.436 335.893 761.322 335.14 761.096 334.62C760.869 334.1 760.556 333.747 760.156 333.56C759.756 333.36 759.302 333.26 758.796 333.26C757.916 333.26 757.229 333.573 756.736 334.2C756.256 334.813 756.016 335.687 756.016 336.82H755.236C755.236 335.767 755.389 334.86 755.696 334.1C756.002 333.34 756.442 332.76 757.016 332.36C757.602 331.96 758.309 331.76 759.136 331.76C760.349 331.76 761.302 332.133 761.996 332.88C762.702 333.627 763.049 334.76 763.036 336.28L761.436 336.88ZM770.028 342.24C769.041 342.24 768.168 342.02 767.408 341.58C766.648 341.127 766.055 340.507 765.628 339.72C765.201 338.933 764.988 338.027 764.988 337C764.988 335.973 765.195 335.067 765.608 334.28C766.035 333.493 766.628 332.88 767.388 332.44C768.148 331.987 769.015 331.76 769.988 331.76C770.948 331.76 771.808 331.98 772.568 332.42C773.328 332.86 773.908 333.48 774.308 334.28L772.848 334.94C772.581 334.407 772.195 333.993 771.688 333.7C771.181 333.393 770.601 333.24 769.948 333.24C769.295 333.24 768.715 333.4 768.208 333.72C767.715 334.04 767.321 334.487 767.028 335.06C766.748 335.62 766.608 336.267 766.608 337C766.608 337.733 766.748 338.387 767.028 338.96C767.321 339.52 767.721 339.96 768.228 340.28C768.748 340.6 769.335 340.76 769.988 340.76C770.641 340.76 771.221 340.593 771.728 340.26C772.248 339.927 772.641 339.46 772.908 338.86L774.368 339.52C773.968 340.373 773.388 341.04 772.628 341.52C771.868 342 771.001 342.24 770.028 342.24ZM776.388 342V328H777.988V342H776.388ZM787.643 342L787.543 340.16V332H789.143V342H787.643ZM780.523 337.72V332H782.123V337.12L780.523 337.72ZM782.123 337.12C782.123 338.107 782.236 338.86 782.463 339.38C782.689 339.9 783.003 340.26 783.403 340.46C783.816 340.647 784.276 340.74 784.783 340.74C785.649 340.74 786.323 340.427 786.803 339.8C787.296 339.173 787.543 338.3 787.543 337.18H788.323C788.323 338.233 788.169 339.14 787.863 339.9C787.556 340.66 787.109 341.24 786.523 341.64C785.949 342.04 785.249 342.24 784.423 342.24C783.209 342.24 782.249 341.867 781.543 341.12C780.849 340.373 780.509 339.24 780.523 337.72L782.123 337.12ZM799.335 342L799.255 340.14V328H800.855V342H799.335ZM795.875 342.24C794.982 342.24 794.195 342.02 793.515 341.58C792.835 341.14 792.302 340.527 791.915 339.74C791.542 338.94 791.355 338.027 791.355 337C791.355 335.96 791.542 335.047 791.915 334.26C792.302 333.473 792.835 332.86 793.515 332.42C794.195 331.98 794.982 331.76 795.875 331.76C796.715 331.76 797.448 331.98 798.075 332.42C798.715 332.86 799.208 333.473 799.555 334.26C799.902 335.047 800.075 335.96 800.075 337C800.075 338.027 799.902 338.94 799.555 339.74C799.208 340.527 798.715 341.14 798.075 341.58C797.448 342.02 796.715 342.24 795.875 342.24ZM796.235 340.78C796.822 340.78 797.342 340.62 797.795 340.3C798.248 339.98 798.602 339.533 798.855 338.96C799.122 338.387 799.255 337.733 799.255 337C799.255 336.267 799.122 335.613 798.855 335.04C798.602 334.467 798.248 334.02 797.795 333.7C797.342 333.38 796.815 333.22 796.215 333.22C795.588 333.22 795.028 333.38 794.535 333.7C794.055 334.02 793.675 334.467 793.395 335.04C793.115 335.613 792.975 336.267 792.975 337C792.975 337.733 793.115 338.387 793.395 338.96C793.675 339.533 794.062 339.98 794.555 340.3C795.048 340.62 795.608 340.78 796.235 340.78ZM808.034 342.24C807.061 342.24 806.201 342.02 805.454 341.58C804.707 341.127 804.121 340.507 803.694 339.72C803.281 338.933 803.074 338.027 803.074 337C803.074 335.973 803.281 335.067 803.694 334.28C804.121 333.493 804.701 332.88 805.434 332.44C806.181 331.987 807.034 331.76 807.994 331.76C808.914 331.76 809.714 331.993 810.394 332.46C811.087 332.913 811.621 333.553 811.994 334.38C812.367 335.207 812.554 336.18 812.554 337.3H810.954C810.954 336.447 810.841 335.72 810.614 335.12C810.387 334.507 810.047 334.033 809.594 333.7C809.154 333.367 808.614 333.2 807.974 333.2C807.321 333.2 806.741 333.36 806.234 333.68C805.741 333.987 805.361 334.427 805.094 335C804.827 335.573 804.694 336.247 804.694 337.02C804.694 337.78 804.841 338.44 805.134 339C805.427 339.547 805.834 339.98 806.354 340.3C806.874 340.607 807.461 340.76 808.114 340.76C808.807 340.76 809.394 340.593 809.874 340.26C810.354 339.927 810.734 339.493 811.014 338.96L812.414 339.66C812.161 340.18 811.821 340.633 811.394 341.02C810.981 341.407 810.487 341.707 809.914 341.92C809.354 342.133 808.727 342.24 808.034 342.24ZM804.134 337.3L804.154 335.92H811.574V337.3H804.134ZM823.273 342.24C822.3 342.24 821.547 341.987 821.013 341.48C820.48 340.973 820.213 340.26 820.213 339.34V328.88H821.813V339.18C821.813 339.687 821.947 340.08 822.213 340.36C822.493 340.627 822.88 340.76 823.373 340.76C823.533 340.76 823.687 340.74 823.833 340.7C823.993 340.647 824.2 340.527 824.453 340.34L825.073 341.64C824.727 341.867 824.413 342.02 824.133 342.1C823.853 342.193 823.567 342.24 823.273 342.24ZM818.473 333.42V332H824.813V333.42H818.473ZM827.952 336.58C827.952 335.5 828.159 334.627 828.572 333.96C828.985 333.28 829.512 332.78 830.152 332.46C830.805 332.127 831.492 331.96 832.212 331.96V333.46C831.625 333.46 831.059 333.56 830.512 333.76C829.979 333.947 829.539 334.26 829.192 334.7C828.845 335.14 828.672 335.74 828.672 336.5L827.952 336.58ZM827.072 342V332H828.672V342H827.072ZM839.99 342L839.89 340.36V336.72C839.89 335.933 839.796 335.287 839.61 334.78C839.436 334.26 839.163 333.873 838.79 333.62C838.43 333.353 837.95 333.22 837.35 333.22C836.776 333.22 836.276 333.333 835.85 333.56C835.436 333.787 835.096 334.14 834.83 334.62L833.39 334.04C833.656 333.573 833.976 333.167 834.35 332.82C834.723 332.473 835.156 332.213 835.65 332.04C836.156 331.853 836.73 331.76 837.37 331.76C838.29 331.76 839.056 331.94 839.67 332.3C840.283 332.66 840.743 333.2 841.05 333.92C841.356 334.627 841.503 335.513 841.49 336.58L841.47 342H839.99ZM836.99 342.24C835.816 342.24 834.896 341.973 834.23 341.44C833.576 340.893 833.25 340.14 833.25 339.18C833.25 338.167 833.583 337.393 834.25 336.86C834.93 336.313 835.876 336.04 837.09 336.04H839.95V337.38H837.45C836.516 337.38 835.85 337.533 835.45 337.84C835.063 338.147 834.87 338.587 834.87 339.16C834.87 339.68 835.063 340.093 835.45 340.4C835.836 340.693 836.376 340.84 837.07 340.84C837.643 340.84 838.143 340.707 838.57 340.44C838.996 340.173 839.323 339.813 839.55 339.36C839.776 338.893 839.89 338.367 839.89 337.78H840.87C840.87 339.14 840.536 340.227 839.87 341.04C839.203 341.84 838.243 342.24 836.99 342.24ZM844.025 342V332H845.525L845.625 333.84V342H844.025ZM851.045 342V336.88L852.645 336.28V342H851.045ZM851.045 336.88C851.045 335.893 850.932 335.14 850.705 334.62C850.478 334.1 850.165 333.747 849.765 333.56C849.365 333.36 848.912 333.26 848.405 333.26C847.525 333.26 846.838 333.573 846.345 334.2C845.865 334.813 845.625 335.687 845.625 336.82H844.845C844.845 335.767 844.998 334.86 845.305 334.1C845.612 333.34 846.052 332.76 846.625 332.36C847.212 331.96 847.918 331.76 848.745 331.76C849.958 331.76 850.912 332.133 851.605 332.88C852.312 333.627 852.658 334.76 852.645 336.28L851.045 336.88ZM858.677 342.24C857.944 342.24 857.304 342.133 856.757 341.92C856.211 341.693 855.751 341.4 855.377 341.04C855.017 340.68 854.757 340.287 854.597 339.86L855.997 339.28C856.224 339.733 856.564 340.1 857.017 340.38C857.471 340.66 857.971 340.8 858.517 340.8C859.144 340.8 859.671 340.68 860.097 340.44C860.524 340.187 860.737 339.833 860.737 339.38C860.737 338.967 860.577 338.633 860.257 338.38C859.951 338.127 859.491 337.92 858.877 337.76L857.917 337.5C857.011 337.26 856.304 336.9 855.797 336.42C855.291 335.927 855.037 335.373 855.037 334.76C855.037 333.813 855.344 333.08 855.957 332.56C856.584 332.027 857.511 331.76 858.737 331.76C859.324 331.76 859.857 331.847 860.337 332.02C860.817 332.193 861.231 332.44 861.577 332.76C861.924 333.067 862.177 333.433 862.337 333.86L860.937 334.48C860.764 334.027 860.477 333.7 860.077 333.5C859.677 333.3 859.191 333.2 858.617 333.2C858.004 333.2 857.524 333.333 857.177 333.6C856.831 333.853 856.657 334.213 856.657 334.68C856.657 334.947 856.797 335.2 857.077 335.44C857.371 335.667 857.797 335.853 858.357 336L859.357 336.26C860.011 336.42 860.557 336.66 860.997 336.98C861.437 337.287 861.771 337.64 861.997 338.04C862.224 338.44 862.337 338.867 862.337 339.32C862.337 339.92 862.177 340.44 861.857 340.88C861.537 341.32 861.104 341.66 860.557 341.9C860.011 342.127 859.384 342.24 858.677 342.24ZM870.654 342L870.554 340.36V336.72C870.554 335.933 870.46 335.287 870.274 334.78C870.1 334.26 869.827 333.873 869.454 333.62C869.094 333.353 868.614 333.22 868.014 333.22C867.44 333.22 866.94 333.333 866.514 333.56C866.1 333.787 865.76 334.14 865.494 334.62L864.054 334.04C864.32 333.573 864.64 333.167 865.014 332.82C865.387 332.473 865.82 332.213 866.314 332.04C866.82 331.853 867.394 331.76 868.034 331.76C868.954 331.76 869.72 331.94 870.334 332.3C870.947 332.66 871.407 333.2 871.714 333.92C872.02 334.627 872.167 335.513 872.154 336.58L872.134 342H870.654ZM867.654 342.24C866.48 342.24 865.56 341.973 864.894 341.44C864.24 340.893 863.914 340.14 863.914 339.18C863.914 338.167 864.247 337.393 864.914 336.86C865.594 336.313 866.54 336.04 867.754 336.04H870.614V337.38H868.114C867.18 337.38 866.514 337.533 866.114 337.84C865.727 338.147 865.534 338.587 865.534 339.16C865.534 339.68 865.727 340.093 866.114 340.4C866.5 340.693 867.04 340.84 867.734 340.84C868.307 340.84 868.807 340.707 869.234 340.44C869.66 340.173 869.987 339.813 870.214 339.36C870.44 338.893 870.554 338.367 870.554 337.78H871.534C871.534 339.14 871.2 340.227 870.534 341.04C869.867 341.84 868.907 342.24 867.654 342.24ZM879.149 342.24C878.162 342.24 877.289 342.02 876.529 341.58C875.769 341.127 875.176 340.507 874.749 339.72C874.322 338.933 874.109 338.027 874.109 337C874.109 335.973 874.316 335.067 874.729 334.28C875.156 333.493 875.749 332.88 876.509 332.44C877.269 331.987 878.136 331.76 879.109 331.76C880.069 331.76 880.929 331.98 881.689 332.42C882.449 332.86 883.029 333.48 883.429 334.28L881.969 334.94C881.702 334.407 881.316 333.993 880.809 333.7C880.302 333.393 879.722 333.24 879.069 333.24C878.416 333.24 877.836 333.4 877.329 333.72C876.836 334.04 876.442 334.487 876.149 335.06C875.869 335.62 875.729 336.267 875.729 337C875.729 337.733 875.869 338.387 876.149 338.96C876.442 339.52 876.842 339.96 877.349 340.28C877.869 340.6 878.456 340.76 879.109 340.76C879.762 340.76 880.342 340.593 880.849 340.26C881.369 339.927 881.762 339.46 882.029 338.86L883.489 339.52C883.089 340.373 882.509 341.04 881.749 341.52C880.989 342 880.122 342.24 879.149 342.24ZM889.269 342.24C888.296 342.24 887.543 341.987 887.009 341.48C886.476 340.973 886.209 340.26 886.209 339.34V328.88H887.809V339.18C887.809 339.687 887.943 340.08 888.209 340.36C888.489 340.627 888.876 340.76 889.369 340.76C889.529 340.76 889.683 340.74 889.829 340.7C889.989 340.647 890.196 340.527 890.449 340.34L891.069 341.64C890.723 341.867 890.409 342.02 890.129 342.1C889.849 342.193 889.563 342.24 889.269 342.24ZM884.469 333.42V332H890.809V333.42H884.469ZM893.168 342L893.208 332H894.808L894.768 342H893.168ZM893.988 329.68C893.721 329.68 893.488 329.58 893.288 329.38C893.088 329.18 892.988 328.947 892.988 328.68C892.988 328.4 893.088 328.167 893.288 327.98C893.488 327.78 893.721 327.68 893.988 327.68C894.268 327.68 894.501 327.78 894.688 327.98C894.888 328.167 894.988 328.4 894.988 328.68C894.988 328.947 894.888 329.18 894.688 329.38C894.501 329.58 894.268 329.68 893.988 329.68ZM902.136 342.24C901.163 342.24 900.296 342.02 899.536 341.58C898.79 341.127 898.203 340.507 897.776 339.72C897.35 338.933 897.136 338.027 897.136 337C897.136 335.973 897.343 335.067 897.756 334.28C898.183 333.493 898.77 332.88 899.516 332.44C900.276 331.987 901.136 331.76 902.096 331.76C903.083 331.76 903.95 331.987 904.696 332.44C905.456 332.88 906.043 333.493 906.456 334.28C906.883 335.067 907.096 335.973 907.096 337C907.096 338.027 906.883 338.933 906.456 339.72C906.043 340.507 905.463 341.127 904.716 341.58C903.97 342.02 903.11 342.24 902.136 342.24ZM902.136 340.76C902.803 340.76 903.383 340.6 903.876 340.28C904.37 339.96 904.756 339.52 905.036 338.96C905.33 338.4 905.476 337.747 905.476 337C905.476 336.253 905.33 335.6 905.036 335.04C904.756 334.48 904.363 334.04 903.856 333.72C903.35 333.4 902.763 333.24 902.096 333.24C901.443 333.24 900.863 333.4 900.356 333.72C899.863 334.04 899.47 334.48 899.176 335.04C898.896 335.6 898.756 336.253 898.756 337C898.756 337.733 898.896 338.387 899.176 338.96C899.47 339.52 899.87 339.96 900.376 340.28C900.896 340.6 901.483 340.76 902.136 340.76ZM909.318 342V332H910.818L910.918 333.84V342H909.318ZM916.338 342V336.88L917.938 336.28V342H916.338ZM916.338 336.88C916.338 335.893 916.225 335.14 915.998 334.62C915.771 334.1 915.458 333.747 915.058 333.56C914.658 333.36 914.205 333.26 913.698 333.26C912.818 333.26 912.131 333.573 911.638 334.2C911.158 334.813 910.918 335.687 910.918 336.82H910.138C910.138 335.767 910.291 334.86 910.598 334.1C910.905 333.34 911.345 332.76 911.918 332.36C912.505 331.96 913.211 331.76 914.038 331.76C915.251 331.76 916.205 332.133 916.898 332.88C917.605 333.627 917.951 334.76 917.938 336.28L916.338 336.88Z" fill="#0D2F48"/>
</g>
<circle cx="711" cy="378" r="10" fill="#4DB955"/>
<defs>
<filter id="filter0_d_0_1" x="131" y="-59" width="442.009" height="271.647" filterUnits="userSpaceOnUse" color-interpolation-filters="sRGB">
<feFlood flood-opacity="0" result="BackgroundImageFix"/>
<feColorMatrix in="SourceAlpha" type="matrix" values="0 0 0 0 0 0 0 0 0 0 0 0 0 0 0 0 0 0 127 0" result="hardAlpha"/>
<feOffset dy="10"/>
<feGaussianBlur stdDeviation="50"/>
<feComposite in2="hardAlpha" operator="out"/>
<feColorMatrix type="matrix" values="0 0 0 0 0.0509804 0 0 0 0 0.184314 0 0 0 0 0.282353 0 0 0 0.12 0"/>
<feBlend mode="normal" in2="BackgroundImageFix" result="effect1_dropShadow_0_1"/>
<feBlend mode="normal" in="SourceGraphic" in2="effect1_dropShadow_0_1" result="shape"/>
</filter>
<filter id="filter1_d_0_1" x="306" y="115" width="553" height="272" filterUnits="userSpaceOnUse" color-interpolation-filters="sRGB">
<feFlood flood-opacity="0" result="BackgroundImageFix"/>
<feColorMatrix in="SourceAlpha" type="matrix" values="0 0 0 0 0 0 0 0 0 0 0 0 0 0 0 0 0 0 127 0" result="hardAlpha"/>
<feOffset dy="10"/>
<feGaussianBlur stdDeviation="50"/>
<feComposite in2="hardAlpha" operator="out"/>
<feColorMatrix type="matrix" values="0 0 0 0 0.0509804 0 0 0 0 0.184314 0 0 0 0 0.282353 0 0 0 0.12 0"/>
<feBlend mode="normal" in2="BackgroundImageFix" result="effect1_dropShadow_0_1"/>
<feBlend mode="normal" in="SourceGraphic" in2="effect1_dropShadow_0_1" result="shape"/>
</filter>
<filter id="filter2_d_0_1" x="601" y="216" width="478" height="272" filterUnits="userSpaceOnUse" color-interpolation-filters="sRGB">
<feFlood flood-opacity="0" result="BackgroundImageFix"/>
<feColorMatrix in="SourceAlpha" type="matrix" values="0 0 0 0 0 0 0 0 0 0 0 0 0 0 0 0 0 0 127 0" result="hardAlpha"/>
<feOffset dy="10"/>
<feGaussianBlur stdDeviation="50"/>
<feComposite in2="hardAlpha" operator="out"/>
<feColorMatrix type="matrix" values="0 0 0 0 0.0509804 0 0 0 0 0.184314 0 0 0 0 0.282353 0 0 0 0.12 0"/>
<feBlend mode="normal" in2="BackgroundImageFix" result="effect1_dropShadow_0_1"/>
<feBlend mode="normal" in="SourceGraphic" in2="effect1_dropShadow_0_1" result="shape"/>
</filter>
</defs>
</svg>
